<svg xmlns="http://www.w3.org/2000/svg" width="100" height="100.003" viewBox="0 0 100 100.003"><defs><style>.a{fill:#86d2e3;opacity:0.5;}</style></defs><path class="a" d="M-13228-79a49.663,49.663,0,0,1-35.352-14.644A49.674,49.674,0,0,1-13278-129a49.674,49.674,0,0,1,14.648-35.358A49.663,49.663,0,0,1-13228-179a49.664,49.664,0,0,1,35.355,14.644A49.666,49.666,0,0,1-13178-129a49.665,49.665,0,0,1-14.645,35.358A49.664,49.664,0,0,1-13228-79Zm0-70.83A20.853,20.853,0,0,0-13248.832-129,20.853,20.853,0,0,0-13228-108.17a20.858,20.858,0,0,0,20.84-20.828A20.858,20.858,0,0,0-13228-149.827Z" transform="translate(13278.004 179)"/></svg>