<svg xmlns="http://www.w3.org/2000/svg" width="80" height="27.914" viewBox="0 0 80 27.914"><defs><style>.a{fill:#fff;}</style></defs><path class="a" d="M-72.99-32.459h2.946v12.975h7.691v2.618H-72.99Zm19.614,16.014a7.86,7.86,0,0,1-3.179-.643,8.092,8.092,0,0,1-2.572-1.765,8.332,8.332,0,0,1-1.73-2.618,8.154,8.154,0,0,1-.631-3.2,8.154,8.154,0,0,1,.631-3.2,8.293,8.293,0,0,1,1.718-2.607,8.013,8.013,0,0,1,2.572-1.753,7.943,7.943,0,0,1,3.191-.643,7.86,7.86,0,0,1,3.179.643,8.187,8.187,0,0,1,2.572,1.753,8.192,8.192,0,0,1,1.73,2.607,8.154,8.154,0,0,1,.631,3.2,8.154,8.154,0,0,1-.631,3.2,8.332,8.332,0,0,1-1.73,2.618A8.092,8.092,0,0,1-50.2-17.088,7.86,7.86,0,0,1-53.376-16.445Zm0-2.782a4.788,4.788,0,0,0,2.081-.444,4.776,4.776,0,0,0,1.59-1.2A5.4,5.4,0,0,0-48.7-22.64a6.342,6.342,0,0,0,.351-2.1A6.311,6.311,0,0,0-48.7-26.86,5.286,5.286,0,0,0-49.705-28.6a4.713,4.713,0,0,0-1.59-1.181,4.9,4.9,0,0,0-2.081-.432,4.876,4.876,0,0,0-2.092.432A4.745,4.745,0,0,0-57.046-28.6a5.286,5.286,0,0,0-1.005,1.742,6.311,6.311,0,0,0-.351,2.116,6.342,6.342,0,0,0,.351,2.1,5.4,5.4,0,0,0,1.005,1.765,4.81,4.81,0,0,0,1.578,1.2A4.767,4.767,0,0,0-53.376-19.227Zm18.983-5.891h5.587v6.452a8.3,8.3,0,0,1-2.408,1.52,9.63,9.63,0,0,1-3.834.655,8.8,8.8,0,0,1-3.425-.631,7.589,7.589,0,0,1-2.56-1.718,7.448,7.448,0,0,1-1.613-2.56,8.857,8.857,0,0,1-.561-3.179,8.724,8.724,0,0,1,.584-3.2A7.988,7.988,0,0,1-40.974-30.4a7.84,7.84,0,0,1,2.537-1.777,7.912,7.912,0,0,1,3.25-.655,8.472,8.472,0,0,1,2.1.245,7.7,7.7,0,0,1,1.742.666,6.5,6.5,0,0,1,1.391.994A8.371,8.371,0,0,1-28.876-29.7l-2.081,1.847a6.445,6.445,0,0,0-1.742-1.73,4.434,4.434,0,0,0-2.49-.655,4.537,4.537,0,0,0-2.057.456A4.859,4.859,0,0,0-38.8-28.567a5.325,5.325,0,0,0-.982,1.777,6.72,6.72,0,0,0-.339,2.139,5.97,5.97,0,0,0,.409,2.268,5.265,5.265,0,0,0,1.122,1.73,4.895,4.895,0,0,0,1.66,1.11,5.247,5.247,0,0,0,2,.386,4.866,4.866,0,0,0,3.32-1.029v-2.431h-2.782Zm16.2,8.673a7.86,7.86,0,0,1-3.179-.643,8.092,8.092,0,0,1-2.572-1.765,8.332,8.332,0,0,1-1.73-2.618,8.154,8.154,0,0,1-.631-3.2,8.154,8.154,0,0,1,.631-3.2,8.293,8.293,0,0,1,1.718-2.607,8.013,8.013,0,0,1,2.572-1.753,7.943,7.943,0,0,1,3.191-.643,7.86,7.86,0,0,1,3.179.643,8.187,8.187,0,0,1,2.572,1.753,8.192,8.192,0,0,1,1.73,2.607,8.154,8.154,0,0,1,.631,3.2,8.154,8.154,0,0,1-.631,3.2,8.332,8.332,0,0,1-1.73,2.618,8.092,8.092,0,0,1-2.572,1.765A7.86,7.86,0,0,1-18.192-16.445Zm0-2.782a4.788,4.788,0,0,0,2.081-.444,4.776,4.776,0,0,0,1.59-1.2,5.4,5.4,0,0,0,1.005-1.765,6.342,6.342,0,0,0,.351-2.1,6.311,6.311,0,0,0-.351-2.116A5.286,5.286,0,0,0-14.521-28.6a4.713,4.713,0,0,0-1.59-1.181,4.9,4.9,0,0,0-2.081-.432,4.876,4.876,0,0,0-2.092.432A4.745,4.745,0,0,0-21.862-28.6a5.286,5.286,0,0,0-1.005,1.742,6.311,6.311,0,0,0-.351,2.116,6.342,6.342,0,0,0,.351,2.1,5.4,5.4,0,0,0,1.005,1.765,4.81,4.81,0,0,0,1.578,1.2A4.767,4.767,0,0,0-18.192-19.227Zm-63.372,6.254h2.5a3.084,3.084,0,0,1,1.338.251,2.4,2.4,0,0,1,.824.62,2.129,2.129,0,0,1,.421.789,2.9,2.9,0,0,1,.117.771A2.485,2.485,0,0,1-76.6-9.42a2.246,2.246,0,0,1-.608.766,2.481,2.481,0,0,1-.842.438,3.2,3.2,0,0,1-.923.14H-80.15v2.9h-1.414Zm2.478,3.659a1.221,1.221,0,0,0,.894-.327,1.143,1.143,0,0,0,.333-.853,1.2,1.2,0,0,0-.351-.894,1.2,1.2,0,0,0-.877-.345H-80.15v2.42Zm4.044-3.659h1.473v6.487h3.846v1.309h-5.319Zm8.884,0h1.52l2.957,7.8h-1.636L-64-7.152h-2.9l-.678,1.975h-1.543Zm1.742,4.605L-65.445-11.4l-1.04,3.027ZM-54.13-6.6a2.886,2.886,0,0,1-.485.549,4.121,4.121,0,0,1-.731.52,4.477,4.477,0,0,1-.923.392,3.656,3.656,0,0,1-1.064.152,4.1,4.1,0,0,1-1.6-.3,3.722,3.722,0,0,1-1.251-.847A3.873,3.873,0,0,1-61-7.421,4.335,4.335,0,0,1-61.3-9.034a4.362,4.362,0,0,1,.292-1.6,3.994,3.994,0,0,1,.824-1.309,3.92,3.92,0,0,1,1.268-.888,3.956,3.956,0,0,1,1.625-.327,4.236,4.236,0,0,1,1.052.123,3.851,3.851,0,0,1,.871.333,3.252,3.252,0,0,1,.7.5,4.185,4.185,0,0,1,.538.614l-1.04.923a3.222,3.222,0,0,0-.871-.865,2.217,2.217,0,0,0-1.245-.327,2.268,2.268,0,0,0-1.029.228,2.429,2.429,0,0,0-.777.608,2.663,2.663,0,0,0-.491.888,3.36,3.36,0,0,0-.169,1.07,3.2,3.2,0,0,0,.169,1.052,2.551,2.551,0,0,0,.485.853,2.32,2.32,0,0,0,.754.573,2.254,2.254,0,0,0,.988.21A2.776,2.776,0,0,0-56.5-6.5a2.321,2.321,0,0,0,.608-.292,2.334,2.334,0,0,0,.421-.368q.169-.193.31-.333Zm1.087-6.371h5.05v1.3H-51.57v1.835h2.63v1.309h-2.63V-6.5h3.846v1.321h-5.319Zm6.639,0h1.473v3.133h3.869v-3.133h1.473v7.8h-1.473V-8.532H-44.93v3.355H-46.4Zm12.2,8.007a3.93,3.93,0,0,1-1.59-.321,4.046,4.046,0,0,1-1.286-.883A4.166,4.166,0,0,1-37.94-7.48a4.077,4.077,0,0,1-.316-1.6,4.077,4.077,0,0,1,.316-1.6,4.146,4.146,0,0,1,.859-1.3,4.007,4.007,0,0,1,1.286-.877,3.971,3.971,0,0,1,1.6-.321,3.93,3.93,0,0,1,1.59.321,4.094,4.094,0,0,1,1.286.877,4.1,4.1,0,0,1,.865,1.3,4.077,4.077,0,0,1,.316,1.6,4.077,4.077,0,0,1-.316,1.6,4.166,4.166,0,0,1-.865,1.309,4.046,4.046,0,0,1-1.286.883A3.93,3.93,0,0,1-34.2-4.967Zm0-1.391a2.394,2.394,0,0,0,1.04-.222,2.388,2.388,0,0,0,.795-.6,2.7,2.7,0,0,0,.5-.883,3.171,3.171,0,0,0,.175-1.052,3.155,3.155,0,0,0-.175-1.058,2.643,2.643,0,0,0-.5-.871,2.356,2.356,0,0,0-.795-.59,2.449,2.449,0,0,0-1.04-.216,2.438,2.438,0,0,0-1.046.216,2.372,2.372,0,0,0-.789.59,2.643,2.643,0,0,0-.5.871,3.155,3.155,0,0,0-.175,1.058,3.171,3.171,0,0,0,.175,1.052,2.7,2.7,0,0,0,.5.883,2.4,2.4,0,0,0,.789.6A2.384,2.384,0,0,0-34.2-6.357Zm5.389-6.616h1.473v6.487h3.846v1.309h-5.319Zm6.464,0h2.911a5.664,5.664,0,0,1,1.672.234,3.552,3.552,0,0,1,1.309.713A3.189,3.189,0,0,1-15.6-10.8a4.674,4.674,0,0,1,.3,1.765,4.244,4.244,0,0,1-.31,1.689,3.314,3.314,0,0,1-.865,1.2,3.631,3.631,0,0,1-1.315.725,5.494,5.494,0,0,1-1.66.24h-2.9Zm2.77,6.487a2.909,2.909,0,0,0,2.034-.643,2.426,2.426,0,0,0,.7-1.882,2.774,2.774,0,0,0-.649-1.94,2.7,2.7,0,0,0-2.087-.713h-1.3v5.178Zm5.611-6.487h5.05v1.3h-3.577v1.835h2.63v1.309h-2.63V-6.5h3.846v1.321h-5.319Zm6.639,0h2.583a3.15,3.15,0,0,1,1.251.222,2.388,2.388,0,0,1,.83.567,2.216,2.216,0,0,1,.462.754,2.327,2.327,0,0,1,.146.783,2.6,2.6,0,0,1-.321,1.3,2.287,2.287,0,0,1-.988.906l1.8,3.261h-1.66L-4.8-8.251h-1.11v3.074H-7.327Zm2.595,3.507a1.141,1.141,0,0,0,.871-.327,1.114,1.114,0,0,0,.31-.795,1.086,1.086,0,0,0-.327-.818,1.178,1.178,0,0,0-.853-.316H-5.912v2.256Z" transform="translate(81.564 32.88)"/></svg>