<svg xmlns="http://www.w3.org/2000/svg" width="100" height="100.002" viewBox="0 0 100 100.002"><defs><style>.a{fill:#40AE49;opacity:0.5;}</style></defs><path class="a" d="M-13228-79a49.646,49.646,0,0,1-35.348-14.644A49.669,49.669,0,0,1-13278-129a49.669,49.669,0,0,1,14.648-35.357A49.646,49.646,0,0,1-13228-179a49.657,49.657,0,0,1,35.355,14.644A49.669,49.669,0,0,1-13178-129a49.669,49.669,0,0,1-14.648,35.357A49.657,49.657,0,0,1-13228-79Zm0-70.829A20.848,20.848,0,0,0-13248.828-129,20.848,20.848,0,0,0-13228-108.171,20.86,20.86,0,0,0-13207.16-129,20.86,20.86,0,0,0-13228-149.827Z" transform="translate(13278 179)"/></svg>