<svg xmlns="http://www.w3.org/2000/svg" width="16" height="13" viewBox="0 0 16 13"><defs><style>.a{fill:#fff;}</style></defs><path class="a" d="M16,7.55a6.978,6.978,0,0,1-1.875.525,3.305,3.305,0,0,0,1.45-1.825,6.514,6.514,0,0,1-2.075.8A3.344,3.344,0,0,0,11.075,6,3.27,3.27,0,0,0,7.8,9.275a3.816,3.816,0,0,0,.075.75A9.249,9.249,0,0,1,1.125,6.6a3.324,3.324,0,0,0-.45,1.65,3.24,3.24,0,0,0,1.45,2.725,3.487,3.487,0,0,1-1.475-.4v.05A3.277,3.277,0,0,0,3.275,13.85a3.362,3.362,0,0,1-.875.125,5.263,5.263,0,0,1-.625-.05A3.29,3.29,0,0,0,4.85,16.2,6.641,6.641,0,0,1,.775,17.6,7.571,7.571,0,0,1,0,17.55,9.525,9.525,0,0,0,5.025,19a9.278,9.278,0,0,0,9.35-9.35V9.225A6.9,6.9,0,0,0,16,7.55Z" transform="translate(0 -6)"/></svg>