<svg xmlns="http://www.w3.org/2000/svg" width="16" height="16" viewBox="0 0 16 16"><defs><style>.a{fill:#fff;}</style></defs><path class="a" d="M8.025,0A8.027,8.027,0,0,0,5.091,15.5a7.929,7.929,0,0,1,.025-2.307c.15-.627.953-3.987.953-3.987A2.8,2.8,0,0,1,5.818,8c0-1.1.652-1.956,1.454-1.956a1,1,0,0,1,1,1.128A14.451,14.451,0,0,1,7.6,9.855,1.161,1.161,0,0,0,8.777,11.31c1.429,0,2.533-1.5,2.533-3.686a3.16,3.16,0,0,0-3.36-3.26A3.46,3.46,0,0,0,4.338,7.849a3.127,3.127,0,0,0,.6,1.831.2.2,0,0,1,.05.226c-.05.251-.2.8-.226.9-.025.15-.125.176-.276.1A3.608,3.608,0,0,1,2.859,7.8c0-2.533,1.831-4.865,5.291-4.865a4.7,4.7,0,0,1,4.94,4.639c0,2.759-1.755,4.99-4.163,4.99A2.129,2.129,0,0,1,7.1,11.636s-.4,1.53-.5,1.906a8.619,8.619,0,0,1-1,2.107A8.294,8.294,0,0,0,7.975,16,8.016,8.016,0,0,0,16,7.975,7.931,7.931,0,0,0,8.025,0Z"/></svg>