<svg xmlns="http://www.w3.org/2000/svg" width="128.782" height="34.503" viewBox="0 0 128.782 34.503"><defs><style>.a{fill:#1c1f2b;}</style></defs><path class="a" d="M-37.324-18.676H-33.1V-3.752h8.932V0h-13.16ZM-13.524.476a9.736,9.736,0,0,1-3.85-.756,9.524,9.524,0,0,1-3.08-2.072A9.538,9.538,0,0,1-22.5-5.474a10.1,10.1,0,0,1-.742-3.878,10.073,10.073,0,0,1,.742-3.892,9.575,9.575,0,0,1,2.044-3.108,9.524,9.524,0,0,1,3.08-2.072,9.736,9.736,0,0,1,3.85-.756,9.736,9.736,0,0,1,3.85.756,9.524,9.524,0,0,1,3.08,2.072A9.575,9.575,0,0,1-4.55-13.244a10.073,10.073,0,0,1,.742,3.892A10.1,10.1,0,0,1-4.55-5.474,9.538,9.538,0,0,1-6.594-2.352,9.524,9.524,0,0,1-9.674-.28,9.736,9.736,0,0,1-13.524.476Zm0-3.976a5,5,0,0,0,2.212-.476A5.031,5.031,0,0,0-9.646-5.264,5.769,5.769,0,0,0-8.6-7.14a6.959,6.959,0,0,0,.364-2.268A6.959,6.959,0,0,0-8.6-11.676a5.607,5.607,0,0,0-1.05-1.862,4.954,4.954,0,0,0-1.666-1.26,5.126,5.126,0,0,0-2.212-.462,5.219,5.219,0,0,0-2.226.462,4.917,4.917,0,0,0-1.68,1.26,5.607,5.607,0,0,0-1.05,1.862,6.959,6.959,0,0,0-.364,2.268A6.959,6.959,0,0,0-18.48-7.14a5.769,5.769,0,0,0,1.05,1.876,4.991,4.991,0,0,0,1.68,1.288A5.089,5.089,0,0,0-13.524-3.5ZM8.764-10.276h7.2v8.092a10.447,10.447,0,0,1-3.4,1.946A13.308,13.308,0,0,1,8.12.448a11.086,11.086,0,0,1-4.1-.714,8.7,8.7,0,0,1-3.066-2A8.562,8.562,0,0,1-.966-5.348,11.377,11.377,0,0,1-1.624-9.3a10.6,10.6,0,0,1,.7-3.892A9.3,9.3,0,0,1,1.064-16.31,9.3,9.3,0,0,1,4.116-18.4a9.853,9.853,0,0,1,3.92-.756,10.051,10.051,0,0,1,4.466.938A8.677,8.677,0,0,1,15.68-15.6L12.824-12.88a8.382,8.382,0,0,0-1.974-1.736A4.909,4.909,0,0,0,8.2-15.288a5.315,5.315,0,0,0-2.3.476A5.1,5.1,0,0,0,4.2-13.524a5.585,5.585,0,0,0-1.064,1.9A7.3,7.3,0,0,0,2.772-9.3a6.738,6.738,0,0,0,.42,2.436A5.372,5.372,0,0,0,4.368-5a5.27,5.27,0,0,0,1.778,1.19,5.8,5.8,0,0,0,2.226.42,7.374,7.374,0,0,0,2.044-.266,4.645,4.645,0,0,0,1.652-.854V-6.86h-3.3ZM28.336.476a9.736,9.736,0,0,1-3.85-.756,9.524,9.524,0,0,1-3.08-2.072,9.538,9.538,0,0,1-2.044-3.122,10.1,10.1,0,0,1-.742-3.878,10.073,10.073,0,0,1,.742-3.892,9.575,9.575,0,0,1,2.044-3.108,9.524,9.524,0,0,1,3.08-2.072,9.736,9.736,0,0,1,3.85-.756,9.736,9.736,0,0,1,3.85.756,9.524,9.524,0,0,1,3.08,2.072,9.575,9.575,0,0,1,2.044,3.108,10.073,10.073,0,0,1,.742,3.892,10.1,10.1,0,0,1-.742,3.878,9.538,9.538,0,0,1-2.044,3.122A9.524,9.524,0,0,1,32.186-.28,9.736,9.736,0,0,1,28.336.476Zm0-3.976a5,5,0,0,0,2.212-.476,5.031,5.031,0,0,0,1.666-1.288,5.769,5.769,0,0,0,1.05-1.876,6.959,6.959,0,0,0,.364-2.268,6.959,6.959,0,0,0-.364-2.268,5.607,5.607,0,0,0-1.05-1.862,4.954,4.954,0,0,0-1.666-1.26,5.126,5.126,0,0,0-2.212-.462,5.219,5.219,0,0,0-2.226.462,4.917,4.917,0,0,0-1.68,1.26,5.607,5.607,0,0,0-1.05,1.862,6.959,6.959,0,0,0-.364,2.268A6.959,6.959,0,0,0,23.38-7.14a5.769,5.769,0,0,0,1.05,1.876,4.991,4.991,0,0,0,1.68,1.288A5.089,5.089,0,0,0,28.336-3.5ZM-64.011,2.327H-60a5.473,5.473,0,0,1,2.138.361,3.832,3.832,0,0,1,1.349.912,3.1,3.1,0,0,1,.7,1.235,4.74,4.74,0,0,1,.2,1.33,4.059,4.059,0,0,1-.323,1.672,3.357,3.357,0,0,1-.893,1.207,3.843,3.843,0,0,1-1.358.731,5.727,5.727,0,0,1-1.72.247h-2.3V15h-1.805Zm4.085,6.137a2.549,2.549,0,0,0,1.814-.6A2.171,2.171,0,0,0-57.475,6.2a2.223,2.223,0,0,0-.655-1.7,2.513,2.513,0,0,0-1.8-.617h-2.28V8.464Zm6.669-6.137h1.824V13.385h6.593V15h-8.417Zm14.44,0h1.862L-32,15h-2.033l-1.311-3.534h-5.206L-41.857,15h-1.919Zm2.926,7.6L-37.943,4.36l-2.071,5.567Zm15.865,2.85a4.421,4.421,0,0,1-.646.779,5.9,5.9,0,0,1-1.064.826,6.6,6.6,0,0,1-1.444.656,5.806,5.806,0,0,1-1.805.266,6.477,6.477,0,0,1-2.565-.494,5.893,5.893,0,0,1-2-1.378,6.305,6.305,0,0,1-1.3-2.09,7.25,7.25,0,0,1-.465-2.632,7.219,7.219,0,0,1,.465-2.6,6.612,6.612,0,0,1,1.3-2.128,6.017,6.017,0,0,1,2-1.435,6.283,6.283,0,0,1,2.594-.523,6.1,6.1,0,0,1,1.805.247,6.034,6.034,0,0,1,1.4.618,5.407,5.407,0,0,1,1.026.807,5.888,5.888,0,0,1,.693.836l-1.292,1.1a7.652,7.652,0,0,0-.542-.675,3.721,3.721,0,0,0-.75-.636,4.357,4.357,0,0,0-1.007-.475,4.143,4.143,0,0,0-1.311-.19,4.251,4.251,0,0,0-1.871.4,4.23,4.23,0,0,0-1.406,1.083,4.777,4.777,0,0,0-.884,1.6,6.089,6.089,0,0,0-.3,1.938A5.836,5.836,0,0,0-29.08,10.6a4.8,4.8,0,0,0,.884,1.568,4.054,4.054,0,0,0,1.387,1.045,4.273,4.273,0,0,0,1.824.38,4.426,4.426,0,0,0,1.472-.219,4.235,4.235,0,0,0,1.045-.523,4.074,4.074,0,0,0,.7-.617q.275-.314.465-.523Zm2.109-10.45h7.98V3.942h-6.156V7.628h4.636V9.262h-4.636v4.1h6.612V15h-8.436Zm10.716,0h1.824v5.3H1.558v-5.3H3.382V15H1.558V9.262H-5.377V15H-7.2Zm19.418,13A6.208,6.208,0,0,1,9.671,14.8a6.488,6.488,0,0,1-2.052-1.425,6.559,6.559,0,0,1-1.368-2.118,6.849,6.849,0,0,1-.494-2.6,6.778,6.778,0,0,1,.494-2.594A6.668,6.668,0,0,1,7.609,3.951,6.349,6.349,0,0,1,9.661,2.527a6.511,6.511,0,0,1,5.111,0,6.458,6.458,0,0,1,2.061,1.425A6.585,6.585,0,0,1,18.2,6.061,6.778,6.778,0,0,1,18.7,8.654a6.849,6.849,0,0,1-.494,2.6,6.559,6.559,0,0,1-1.368,2.118A6.458,6.458,0,0,1,14.772,14.8,6.274,6.274,0,0,1,12.217,15.323Zm0-1.71a4.325,4.325,0,0,0,3.334-1.482,4.879,4.879,0,0,0,.922-1.587,5.624,5.624,0,0,0,.323-1.91,5.681,5.681,0,0,0-.323-1.929,4.879,4.879,0,0,0-.922-1.586,4.267,4.267,0,0,0-1.444-1.074,4.466,4.466,0,0,0-1.891-.39,4.4,4.4,0,0,0-1.881.39A4.292,4.292,0,0,0,8.9,5.12,4.879,4.879,0,0,0,7.98,6.707a5.681,5.681,0,0,0-.323,1.929,5.624,5.624,0,0,0,.323,1.91A4.879,4.879,0,0,0,8.9,12.131a4.405,4.405,0,0,0,1.434,1.083A4.313,4.313,0,0,0,12.217,13.613ZM21.071,2.327h1.824V13.385h6.593V15H21.071Zm10.412,0H35.72a9.794,9.794,0,0,1,2.764.371A5.751,5.751,0,0,1,40.66,3.857a5.379,5.379,0,0,1,1.425,1.985,7.206,7.206,0,0,1,.513,2.85,6.976,6.976,0,0,1-.513,2.783,5.4,5.4,0,0,1-1.425,1.976,5.85,5.85,0,0,1-2.185,1.168A9.662,9.662,0,0,1,35.7,15H31.483Zm4.18,11.039a5.389,5.389,0,0,0,3.7-1.168,4.387,4.387,0,0,0,1.32-3.468,4.692,4.692,0,0,0-1.273-3.543,5.282,5.282,0,0,0-3.8-1.226h-2.3v9.4Zm9.31-11.039h7.98V3.942H46.8V7.628h4.636V9.262H46.8v4.1h6.612V15H44.973Zm10.716,0h4.047a5.57,5.57,0,0,1,2.052.333,3.961,3.961,0,0,1,1.359.855,3.176,3.176,0,0,1,.76,1.187,3.984,3.984,0,0,1,.238,1.349,4.028,4.028,0,0,1-.57,2.147,3.405,3.405,0,0,1-1.767,1.387L64.771,15H62.719L60,9.813H57.456V15H55.689Zm4.2,5.947a2.463,2.463,0,0,0,1.8-.589,2.112,2.112,0,0,0,.6-1.577,2.07,2.07,0,0,0-.646-1.624A2.579,2.579,0,0,0,59.85,3.9H57.456v4.37Z" transform="translate(64.011 19.18)"/></svg>